<?xml version="1.0" standalone="no"?><!DOCTYPE svg PUBLIC "-//W3C//DTD SVG 1.1//EN" "http://www.w3.org/Graphics/SVG/1.1/DTD/svg11.dtd"><svg t="1756110382126" class="icon" viewBox="0 0 1546 1024" version="1.1" xmlns="http://www.w3.org/2000/svg" p-id="12676" xmlns:xlink="http://www.w3.org/1999/xlink" width="301.953125" height="200"><path d="M771.856672 338.215906a173.939335 173.939335 0 1 1 0 347.87867 173.939335 173.939335 0 0 1 0-347.87867z m0 65.22725a108.712085 108.712085 0 1 0 0 217.424169 108.712085 108.712085 0 0 0 0-217.424169z" fill="#ed9600" p-id="12677"></path><path d="M1360.293443 12.644955A768.811862 768.811862 0 0 1 1543.712472 512.155241a768.811862 768.811862 0 0 1-183.375544 499.466801 32.613625 32.613625 0 1 1-49.703165-42.223774A703.584611 703.584611 0 0 0 1478.485221 512.155241c0-169.895246-60.139525-330.484737-167.851458-457.286513a32.613625 32.613625 0 1 1 49.65968-42.180288zM229.38337 8.905259a32.613625 32.613625 0 0 1 3.739696 45.963469A703.584611 703.584611 0 0 0 65.228122 512.155241a703.584611 703.584611 0 0 0 167.851459 457.243027 32.613625 32.613625 0 0 1-49.703165 42.223774A768.811862 768.811862 0 0 1 0.000871 512.155241 768.811862 768.811862 0 0 1 183.4199 12.644955a32.613625 32.613625 0 0 1 45.96347-3.739696zM1145.826242 231.678063A465.461661 465.461661 0 0 1 1239.318635 512.155241c0 102.537238-33.135443 200.16069-93.492393 280.477178a32.613625 32.613625 0 1 1-52.138315-39.13635A400.23441 400.23441 0 0 0 1174.091384 512.155241c0-88.274213-28.482566-172.199942-80.403457-241.340828a32.613625 32.613625 0 1 1 52.1818-39.13635zM443.546176 225.155338a32.613625 32.613625 0 0 1 6.479241 45.659075A400.23441 400.23441 0 0 0 369.621959 512.155241c0 88.274213 28.482566 172.199942 80.403458 241.340828a32.613625 32.613625 0 1 1-52.181801 39.13635A465.461661 465.461661 0 0 1 304.394708 512.155241c0-102.580723 33.135443-200.204175 93.492393-280.477178a32.613625 32.613625 0 0 1 45.659075-6.522725z" fill="#ed9600" fill-opacity=".9" p-id="12678"></path></svg>