<?xml version="1.0" standalone="no"?><!DOCTYPE svg PUBLIC "-//W3C//DTD SVG 1.1//EN" "http://www.w3.org/Graphics/SVG/1.1/DTD/svg11.dtd"><svg t="1766721571967" class="icon" viewBox="0 0 1024 1024" version="1.1" xmlns="http://www.w3.org/2000/svg" p-id="5714" xmlns:xlink="http://www.w3.org/1999/xlink" width="48" height="48"><path d="M250.3 870c-10.7 0-17.1-6.5-19.5-12.6-5.4-13.8 4.7-23.1 17.4-34.9 6.3-5.8 14-13 19.1-19.4 16.6-21 26.5-39.6 29.1-48.4-113.4-65-173.3-156.3-173.3-264.4 0-90.4 40.8-175.1 114.9-238.7 73.4-63 170.7-97.6 274-97.6s200.6 34.6 273.9 97.5c74.1 63.6 114.9 148.4 114.9 238.7 0 89.7-41 171.8-115.4 231.4-72 57.7-169.1 89.4-273.4 89.4-12.5 0-26.8-1.5-40.6-3-16.5-1.8-33.5-3.6-43.7-2.2-24.5 3.2-64.1 24.6-91.7 40.5-27 15.5-67.1 23.7-85.7 23.7z m71.5-143.4c5.8 3.8 9.8 9.5 11.4 16.5 5.4 22.9-17.9 58.2-34.2 79.4 6.7-2.4 13.1-5.2 18.6-8.4 35-20 74.8-41 105.3-45 14.5-1.9 32.9 0.1 52.4 2.1 12.8 1.4 26.1 2.8 36.7 2.8 200.6 0 351.9-122 351.9-283.8C863.9 325.2 706 191 512 191S160.1 325.2 160.1 490.2c0 96.6 53.3 175.5 158.5 234.5l3 1.7 0.2 0.2z" p-id="5715"></path><path d="M329.9 479m-62.6 0a62.6 62.6 0 1 0 125.2 0 62.6 62.6 0 1 0-125.2 0Z" p-id="5716"></path><path d="M329.9 542.7c-35.1 0-63.7-28.6-63.7-63.7s28.6-63.7 63.7-63.7 63.7 28.6 63.7 63.7c-0.1 35.1-28.6 63.7-63.7 63.7z m0-125.3c-34 0-61.6 27.6-61.6 61.6s27.6 61.6 61.6 61.6 61.6-27.6 61.6-61.6-27.7-61.6-61.6-61.6z" p-id="5717"></path><path d="M449.3 479a62.7 62.6 0 1 0 125.4 0 62.7 62.6 0 1 0-125.4 0Z" p-id="5718"></path><path d="M512 542.7c-35.1 0-63.7-28.6-63.7-63.7s28.6-63.7 63.7-63.7 63.7 28.6 63.7 63.7-28.6 63.7-63.7 63.7z m0-125.3c-34 0-61.6 27.6-61.6 61.6s27.6 61.6 61.6 61.6 61.6-27.6 61.6-61.6-27.6-61.6-61.6-61.6z" p-id="5719"></path><path d="M694.1 479m-62.6 0a62.6 62.6 0 1 0 125.2 0 62.6 62.6 0 1 0-125.2 0Z" p-id="5720"></path><path d="M694.1 542.7c-35.1 0-63.7-28.6-63.7-63.7s28.6-63.7 63.7-63.7 63.7 28.6 63.7 63.7-28.6 63.7-63.7 63.7z m0-125.3c-34 0-61.6 27.6-61.6 61.6s27.6 61.6 61.6 61.6 61.6-27.6 61.6-61.6-27.6-61.6-61.6-61.6z" p-id="5721"></path></svg>