<?xml version="1.0" standalone="no"?><!DOCTYPE svg PUBLIC "-//W3C//DTD SVG 1.1//EN" "http://www.w3.org/Graphics/SVG/1.1/DTD/svg11.dtd"><svg t="1766476796408" class="icon" viewBox="0 0 1024 1024" version="1.1" xmlns="http://www.w3.org/2000/svg" p-id="12535" xmlns:xlink="http://www.w3.org/1999/xlink" width="48" height="48"><path d="M397.8752 981.64224c-200.05888 0-304.87552-78.29504-323.85536-93.98784-6.8352-5.89312-9.42592-15.1808-6.36416-23.03488 2.74944-8.03328 10.07104-13.68576 19.22048-15.00672l0.45056-0.00512c38.70208-2.56 115.4048-39.20896 146.58048-54.85056l7.55712-3.7888-10.10176-7.27552c-8.04864-5.7856-15.65696-11.24864-22.02112-16.64-66.66752-54.68672-145.3056-171.54048-147.73248-321.08544-5.65248-299.7504 116.55168-386.7648 141.1072-401.16224a21.13536 21.13536 0 0 1 9.99936-2.44224c5.52448 0 11.07968 2.06848 15.6416 5.82144 7.7568 6.0672 10.0096 16.29696 5.5808 24.95488l-0.5632 1.09568v0.896c-2.29888 7.27552-7.15776 29.69088 6.30272 61.45024 16.03584 37.69856 55.17312 76.73856 113.1776 112.896l7.09632 4.42368 0.71168-8.33536c1.29024-15.13984 3.55328-35.31776 9.67168-57.21088 18.24768-64.76288 57.51808-107.58656 113.56672-123.83744a22.77376 22.77376 0 0 1 6.4-0.91136c6.10304 0 11.98592 2.3296 16.13824 6.38464 5.44768 5.3248 5.79584 13.96736 5.35552 22.50752-1.23904 43.98592 32.90624 179.59936 153.71264 228.5056l3.44064 1.39264 2.39616-2.8416c6.68672-7.92576 16.40448-17.91488 28.11392-28.88192l0.55808-0.54272c0.27136-0.21504 45.99808-37.6576 114.74944-37.6576 38.58944 0 76.8 11.91424 113.57184 35.40992 17.44896 11.37152 23.98208 24.80128 28.7488 34.60608l0.93184 1.85856c3.42016 8.16128 7.12192 16.9472 18.19648 27.77088 6.784 6.62528 8.23808 17.14176 3.53792 25.56416-4.2496 7.26016-12.07808 12.01664-19.8912 12.01664-0.82944 0-1.65888-0.05632-2.47808-0.16896a125.0816 125.0816 0 0 0-11.19744-0.52736c-23.79264 0-42.57792 7.7056-55.83872 22.89664-31.91808 35.41504-31.17568 102.23104-20.8128 148.67456 22.73792 97.408-21.75488 188.41088-22.21056 189.32224l0.06656-0.11264c-0.10752 0.19968-0.25088 0.4608-0.4096 0.78336-10.18368 20.03968-106.54208 196.6336-350.33088 224.8448-32.37376 4.1984-64.66048 6.23104-98.77504 6.23104zM286.70976 815.9744c-7.10144 3.87584-71.12704 38.47168-130.6112 59.7504l-11.38688 4.0704 10.84928 5.34528c47.43168 23.35744 128.42496 51.2 244.89984 51.2 29.88032 0 60.98432-1.86368 92.45184-5.53472 222.87872-25.49248 311.19872-193.16224 314.84928-200.28416l0.5632-1.1008v-0.32256c0.10752-0.256 0.20992-0.54784 0.29696-0.88064 8.66816-20.5568 34.3808-90.23488 18.25792-159.33952-19.52256-88.3968 2.65728-154.47552 29.92128-186.8288 16.28672-18.56512 42.66496-28.97408 61.92128-34.42176l3.72736-1.05472v-5.00736l-0.47616-1.50528c-2.64704-5.67808-2.86208-6.13888-4.51584-7.7568-7.2704-8.22272-15.19104-14.43328-23.95648-18.71872-24.83712-12.84608-50.62144-19.38944-76.53888-19.38944-48.10752 0-81.81248 22.528-88.07936 27.04384l-0.25088 0.1792-0.22528 0.20992c-4.84864 4.46976-47.54944 44.66688-53.23264 79.85152l-0.06656 0.4096v4.64896l1.7408 1.53088c29.48608 25.92768 49.79712 53.13536 62.09536 83.16416 35.64544 83.87584-4.34176 153.08288-6.06208 155.99104-2.16064 3.9168-6.11328 8.8064-13.12256 10.62912a25.13408 25.13408 0 0 1-6.79424 0.96256 21.62176 21.62176 0 0 1-10.18368-2.4576c-5.16608-2.62144-8.92416-6.9632-10.6496-12.27264-1.792-5.50912-1.2544-11.52 1.5104-16.91648l0.49664-0.96768c1.152-2.06336 29.82912-55.12192 3.6096-118.66112-27.93472-67.26656-106.66496-120.1664-234.00448-157.25056l-1.39264-0.2816-0.13824-0.13312-0.95232-0.37888C318.32064 292.28032 230.06208 225.4592 198.94784 150.88128a224.18944 224.18944 0 0 1-7.16288-21.48352l-2.8416-10.40896-6.26688 8.78592c-36.25472 50.82624-78.64832 147.32288-74.73664 318.39232 2.49856 135.8336 72.53504 240.25088 131.74784 288.39424 48.64512 38.80448 106.58816 62.94016 172.25728 71.7568l0.33792 0.04608h0.34304c0.7424 0 1.00864 0.05632 1.46944 0.1536 0.46592 0.10752 1.06496 0.23552 1.75616 0.29696 0.62464 0.13312 1.24928 0.24064 1.87392 0.34304 1.0496 0.16896 1.87392 0.3072 2.5088 0.60928l0.36352 0.1792 0.39424 0.11776c5.12 1.54112 9.4976 5.00224 12.32384 9.73824 2.9952 4.75648 3.65568 10.81344 1.92 17.17248-3.15392 8.8064-11.69408 14.97088-21.13024 14.97088-1.18272 0-2.36544-0.30208-2.70848-0.45056l-0.99328-0.44544-1.21856-0.06144h-0.73728l-0.74752-1.1008-2.28352-0.29696a414.6688 414.6688 0 0 1-114.19136-31.81056l-2.304-1.01376-2.21184 1.20832zM462.22848 123.73504C401.6384 168.39168 404.08576 263.936 404.56704 274.68288l0.13312 3.03616 2.73408 1.8176c19.67616 9.61024 40.71424 18.84672 68.21888 29.94688 62.68416 18.35008 113.44384 39.86944 155.65312 65.93536l5.4784 3.38432 2.05824-6.09792a33.31072 33.31072 0 0 1 3.79904-7.8848l3.46112-5.06368-5.59616-2.50368c-104.77056-46.80704-157.16352-153.28768-170.19904-230.25152l-1.38752-8.20224-6.69184 4.93568z" p-id="12536" fill="#0094d7"></path><path d="M845.64992 307.9168c-7.13216 0-13.7472 2.48832-18.3296 7.46496a24.95488 24.95488 0 0 0-7.63904 17.90976c0 6.96832 2.54464 13.43488 7.63904 17.90976a26.1376 26.1376 0 0 0 18.3296 7.46496c14.25408 0 25.96352-11.4432 25.96352-25.37472s-11.70944-25.37472-25.96352-25.37472z" p-id="12537" fill="#0094d7"></path></svg>