<?xml version="1.0" standalone="no"?><!DOCTYPE svg PUBLIC "-//W3C//DTD SVG 1.1//EN" "http://www.w3.org/Graphics/SVG/1.1/DTD/svg11.dtd"><svg t="1766476814342" class="icon" viewBox="0 0 1024 1024" version="1.1" xmlns="http://www.w3.org/2000/svg" p-id="13612" xmlns:xlink="http://www.w3.org/1999/xlink" width="48" height="48"><path d="M706.816 399.67744c0-52.65408-21.06368-105.30304-59.6736-140.40576-35.0976-35.10272-84.23936-59.6736-140.40576-59.6736-56.16128 0-105.30304 21.06368-140.40576 59.6736-35.10272 35.10272-59.6736 84.24448-59.6736 140.40576 0 56.16128 21.05856 105.30304 59.6736 140.40576 35.0976 35.09248 84.24448 59.66336 140.40576 59.66336 52.64896 0 105.30304-21.05856 140.40576-59.66336 38.60992-35.10272 59.6736-84.24448 59.6736-140.40576z m-196.57216 150.93248c-42.12224 0-77.22496-17.55136-105.30304-42.12224-28.0832-28.07808-45.63456-66.69312-45.63456-108.81024 0-42.12224 17.55136-77.22496 42.12224-105.30304 28.07808-28.0832 63.1808-42.12224 105.30304-42.12224s77.22496 17.55136 105.30304 42.12224c28.07808 28.07808 42.12224 63.1808 42.12224 105.30304s-17.55136 77.21984-42.12224 105.30304c-24.56576 28.07808-63.1808 45.62944-101.79072 45.62944z" p-id="13613" fill="#0094d7"></path><path d="M938.48064 747.18208l-126.3616-200.07936c24.57088-45.62944 38.6048-98.28352 38.6048-154.4448 0-94.7712-38.6048-179.01568-98.2784-242.2016-63.18592-56.16128-147.42528-94.7712-242.2016-94.7712-94.7712 0-179.01568 38.60992-238.68928 101.79072-63.1808 59.6736-101.79072 143.91808-101.79072 238.68928 0 56.16128 14.03904 112.32256 38.60992 157.95712L82.00704 757.7088l-21.05856 35.10784 42.12224 3.5072 147.42528 7.01952 63.1808 129.87392 21.05856 35.0976 24.57088-38.6048 122.8544-196.57728h28.0832c10.53184 0 24.57088 0 35.0976-3.5072l115.83488 186.0352 24.57088 35.10272 21.06368-38.61504 66.688-129.87392 143.91296-3.51744h45.62944l-24.56064-31.57504zM341.76 866.52416l-52.65408-101.79584-7.01952-14.03904h-14.03904l-119.34208-3.51232 91.264-147.4304c3.51232 7.02464 45.04576 57.3184 77.22496 77.23008 0 0 70.22592 44.08832 108.81536 49.13664L341.76 866.52416z m168.47872-186.48576c-159.60576 0-288.98816-129.38752-288.98816-288.9984 0-159.60576 129.38752-288.99328 288.98816-288.99328 159.61088 0 288.99328 129.38752 288.99328 288.99328 0.00512 159.61088-129.3824 288.9984-288.99328 288.9984z m249.22624 60.12416h-14.03904l-7.01952 14.03904-56.1664 105.30304-84.24448-133.39136c38.61504-10.53184 73.71264-24.56576 105.30304-45.62944 31.5904-21.05856 59.6736-49.14176 84.24448-77.21984l84.23936 136.89344h-112.31744z" p-id="13614" fill="#0094d7"></path></svg>