<?xml version="1.0" standalone="no"?><!DOCTYPE svg PUBLIC "-//W3C//DTD SVG 1.1//EN" "http://www.w3.org/Graphics/SVG/1.1/DTD/svg11.dtd"><svg t="1756178957097" class="icon" viewBox="0 0 1024 1024" version="1.1" xmlns="http://www.w3.org/2000/svg" p-id="19493" xmlns:xlink="http://www.w3.org/1999/xlink" width="200" height="200"><path d="M716.575 844h17.127l-8.563-14.645zM575.136 750.486c-15.98-16.785-28.917-35.958-38.555-57.173-10.123-22.281-16.117-45.815-17.909-70.146H208.12v-27h310.286c0.908-16.87 3.833-33.398 8.746-49.412H208.12v-27h329.441a206.245 206.245 0 0 1 32.412-49.414H208.12v-26.999h390.647a206.466 206.466 0 0 1 46.042-26.934c25.593-10.825 52.769-16.314 80.771-16.314 4.16 0 8.299 0.136 12.42 0.378V81.701H103.035V844h420.589l51.512-93.514zM208.12 214.105h423.967v26.999H208.12v-26.999z m0 76.413h423.967v26.999H208.12v-26.999z m0 76.413h423.967v26.999H208.12v-26.999z m0 332.649v-26.998h146.797v26.998H208.12z" fill="#ed9600" p-id="19494"></path><path d="M850.567 747.325c38.356-34.331 62.503-84.212 62.503-139.739 0-103.548-83.942-187.49-187.49-187.49s-187.49 83.942-187.49 187.49c0 55.242 23.896 104.9 61.91 139.213l-69.333 125.868L616 848l24 87.333 82.041-140.302c1.178 0.021 2.355 0.045 3.539 0.045 0.891 0 1.775-0.021 2.663-0.033l82.034 140.29 24-87.333 85.333 24.667-69.043-125.342z m-34.923-46.974c-24.175 24.175-56.316 37.488-90.505 37.488s-66.33-13.313-90.505-37.488-37.488-56.316-37.488-90.505 13.313-66.33 37.488-90.505c24.175-24.175 56.316-37.489 90.505-37.489s66.33 13.313 90.505 37.489c24.175 24.175 37.488 56.316 37.488 90.505s-13.314 66.33-37.488 90.505z" fill="#ed9600" p-id="19495"></path><path d="M725.139 609.845m-107.993 0a107.993 107.993 0 1 0 215.986 0 107.993 107.993 0 1 0-215.986 0Z" fill="#ed9600" p-id="19496"></path></svg>