<?xml version="1.0" standalone="no"?><!DOCTYPE svg PUBLIC "-//W3C//DTD SVG 1.1//EN" "http://www.w3.org/Graphics/SVG/1.1/DTD/svg11.dtd"><svg t="1756110410205" class="icon" viewBox="0 0 1024 1024" version="1.1" xmlns="http://www.w3.org/2000/svg" p-id="13941" xmlns:xlink="http://www.w3.org/1999/xlink" width="200" height="200"><path d="M512.2 553.4c-65.3 0-126.8-25.4-173-71.6-46.2-46.2-71.6-107.6-71.6-173s25.4-126.8 71.6-173 107.6-71.6 173-71.6 126.8 25.4 173 71.6 71.6 107.6 71.6 173-25.4 126.8-71.6 173c-46.2 46.2-107.6 71.6-173 71.6z m0-409.2c-90.8 0-164.6 73.8-164.6 164.6s73.8 164.6 164.6 164.6 164.6-73.8 164.6-164.6c0.1-90.8-73.8-164.6-164.6-164.6z" p-id="13942" fill="#ed9600"></path><path d="M832.2 959.7c-22.1 0-40-17.9-40-40V741.9c0-60.8-49.5-110.3-110.3-110.3H342.2c-60.8 0-110.3 49.5-110.3 110.3v177.8c0 22.1-17.9 40-40 40s-40-17.9-40-40V741.9c0-104.9 85.3-190.3 190.3-190.3h339.7c104.9 0 190.3 85.3 190.3 190.3v177.8c0 22.1-17.9 40-40 40z" p-id="13943" fill="#ed9600"></path><path d="M511.3 874.7h-0.1c-14.3 0-27.5-7.7-34.6-20.1L349.4 632.8c-11-19.2-4.4-43.6 14.8-54.6 19.2-11 43.6-4.4 54.6 14.8l92.8 161.7 94-161.9c11.1-19.1 35.6-25.6 54.7-14.5 19.1 11.1 25.6 35.6 14.5 54.7L545.9 854.8c-7.1 12.3-20.3 19.9-34.6 19.9z" p-id="13944" fill="#ed9600"></path></svg>