<?xml version="1.0" standalone="no"?><!DOCTYPE svg PUBLIC "-//W3C//DTD SVG 1.1//EN" "http://www.w3.org/Graphics/SVG/1.1/DTD/svg11.dtd"><svg t="1766476730371" class="icon" viewBox="0 0 1024 1024" version="1.1" xmlns="http://www.w3.org/2000/svg" p-id="10313" xmlns:xlink="http://www.w3.org/1999/xlink" width="48" height="48"><path d="M512 412.116m-215.393 0a215.393 215.393 0 1 0 430.786 0 215.393 215.393 0 1 0-430.786 0Z" fill="#0094d7" p-id="10314"></path><path d="M678.914 607.572c-39.498 48.371-99.595 79.396-166.914 79.396s-127.416-31.094-166.914-79.464C220.987 649.516 135.66 756 135.66 857c0 92 752.68 92 752.68 0 0-101-85.327-207.416-209.426-249.428zM808.888 325.339C773.655 194.214 653.914 97.904 512.001 97.904c-141.821 0-261.498 96.183-296.818 227.175-32.929 6.717-58.723 39.877-58.723 79.802 0 44.772 32.429 80.908 70.991 80.908 19.211 0 28.849-39.789 28.918-80.789h0.801c0-140 114.317-254.672 254.832-254.672 137.2 0 249.403 109.35 254.62 245.04-1.616 43.421 7.959 90.541 28.739 90.541 38.562 0 70.991-36.275 70.991-81.047-0.001-39.417-25.139-72.229-57.464-79.523z" fill="#0094d7" p-id="10315"></path></svg>