<?xml version="1.0" standalone="no"?><!DOCTYPE svg PUBLIC "-//W3C//DTD SVG 1.1//EN" "http://www.w3.org/Graphics/SVG/1.1/DTD/svg11.dtd"><svg t="1756109445907" class="icon" viewBox="0 0 1024 1024" version="1.1" xmlns="http://www.w3.org/2000/svg" p-id="10439" xmlns:xlink="http://www.w3.org/1999/xlink" width="200" height="200"><path d="M-52.89-52.89v0 0z" p-id="10440" fill="#ed9600"></path><path d="M513.094 243.889q99.314 0 169.926 70.611t70.611 171.021q0 95.996-67.293 191.993 33.116-16.558 60.69-40.813t49.11-65.104 21.501-86.075q0-126.889-89.359-215.682t-215.153-88.829h-1.094q-125.794 0-215.153 88.829t-89.359 215.682q0 66.198 39.154 115.308t91.018 76.684q-66.198-95.996-67.293-191.993 1.094-100.409 71.175-171.021t170.455-70.611h1.094zM512 17.722q-126.889 0-234.464 62.35t-170.455 169.926-62.879 235.558q0 101.503 41.943 194.181 78.342 169.926 282.444 222.884l-8.827-17.652q-69.517-34.211-125.794-96.526t-89.359-136.244q-36.4-79.438-36.4-166.607 0-110.331 54.052-203.572t146.73-147.295 203.007-54.052 203.007 54.052 146.73 147.295 54.052 203.572q0 123.569-67.857 234.994t-175.963 163.289l-7.732 18.747q141.222-43.038 228.391-155.027t87.17-262.038q0-127.983-62.879-235.558t-170.455-169.926-234.464-62.35zM647.714 626.742q2.224 34.211-0.564 72.836t-9.391 73.365-15.463 68.422-17.652 61.22-17.088 48.545-12.675 33.116l-5.508 11.050q-23.161 11.050-57.372 11.050-15.463 0-29.798-2.753t-20.972-4.978l-6.638-3.318q-4.414-7.732-10.485-22.63t-20.972-59.031-25.385-86.075-17.652-98.185-3.847-102.598q1.094-2.224 3.318-7.167t12.145-16.558 23.725-20.972 39.718-17.088 57.937-7.732 57.937 7.167 39.718 17.652 22.63 20.407 11.050 17.652zM614.598 420.417q0 43.038-29.798 72.836t-72.836 29.798-72.836-29.798-29.798-72.836 29.798-72.836 72.836-29.798 72.836 29.798 29.798 72.836z" p-id="10441" fill="#ed9600"></path></svg>