<?xml version="1.0" standalone="no"?><!DOCTYPE svg PUBLIC "-//W3C//DTD SVG 1.1//EN" "http://www.w3.org/Graphics/SVG/1.1/DTD/svg11.dtd"><svg t="1756110358100" class="icon" viewBox="0 0 1024 1024" version="1.1" xmlns="http://www.w3.org/2000/svg" p-id="11645" xmlns:xlink="http://www.w3.org/1999/xlink" width="200" height="200"><path d="M1024 928c-38.4-134.4-128-243.2-249.6-313.6-12.8-6.4-25.6 0-32 6.4-6.4 12.8 0 25.6 6.4 32 108.8 64 192 166.4 224 288 0 12.8 12.8 19.2 25.6 19.2 0 0 6.4 0 6.4 0C1017.6 953.6 1024 940.8 1024 928z" fill="#ed9600" p-id="11646"></path><path d="M249.6 614.4C128 684.8 38.4 793.6 0 928 0 940.8 6.4 953.6 19.2 960c0 0 6.4 0 6.4 0 12.8 0 19.2-6.4 25.6-19.2 32-121.6 115.2-224 224-288 12.8-6.4 12.8-19.2 6.4-32C275.2 614.4 262.4 608 249.6 614.4z" fill="#ed9600" p-id="11647"></path><path d="M512 262.4m-256 0a4 4 0 1 0 512 0 4 4 0 1 0-512 0Z" fill="#ed9600" p-id="11648"></path><path d="M320 710.4 512 620.8 320 531.2Z" fill="#ed9600" p-id="11649"></path><path d="M704 710.4 704 531.2 512 620.8Z" fill="#ed9600" p-id="11650"></path></svg>