<?xml version="1.0" standalone="no"?><!DOCTYPE svg PUBLIC "-//W3C//DTD SVG 1.1//EN" "http://www.w3.org/Graphics/SVG/1.1/DTD/svg11.dtd"><svg t="1766476571645" class="icon" viewBox="0 0 1024 1024" version="1.1" xmlns="http://www.w3.org/2000/svg" p-id="7419" data-spm-anchor-id="a313x.search_index.0.i0.2eb13a81GFhykG" width="48" height="48" xmlns:xlink="http://www.w3.org/1999/xlink"><path d="M510.800457 885.028571l-19.850971-12.682971c-6.407314-4.096-159.1296-102.487771-347.999086-285.549714l-12.522057-12.170972 0.468114-0.453485a228.132571 228.132571 0 0 1 12.039314-315.947886c84.245943-81.8176 217.512229-90.960457 312.714972-21.445486l1.579886-1.521371 22.059885 21.357714a174.650514 174.650514 0 0 1 2.208915 2.135771l30.427428 29.564343 54.052572-52.5312 1.6384 1.550629c95.319771-69.792914 228.907886-60.708571 313.344 21.284571A228.395886 228.395886 0 0 1 892.342857 575.722057l0.4096 0.394972-0.453486 0.453485-0.380342-0.365714-0.014629 0.014629 0.365714 0.365714-0.365714-0.365714-0.1024 0.117028 0.365714 0.351086-0.146285-0.146286 0.146285 0.146286-0.365714-0.351086-0.146286 0.146286 0.351086 0.351086-0.087771-0.087772 0.087771 0.087772-0.351086-0.336458 0.351086 0.336458-0.351086-0.336458 0.351086 0.336458-0.351086-0.336458 0.351086 0.336458-0.1024-0.1024 0.1024 0.1024-0.351086-0.336458a5.851429 5.851429 0 0 0-0.146285 0.160915l0.336457 0.336457v0.014628l-10.883657 10.576458C690.000457 772.856686 537.234286 868.600686 530.812343 872.594286l-20.011886 12.434285zM311.954286 261.354057c-66.896457-0.029257-127.253943 39.058286-153.000229 99.1232-25.746286 60.050286-11.834514 129.287314 35.269486 175.484343 145.013029 140.639086 270.043429 231.131429 317.088914 263.533714 47.162514-31.831771 172.470857-121.080686 318.493257-262.8608 64.043886-63.341714 63.444114-165.127314-1.345828-227.766857-64.804571-62.624914-169.428114-62.595657-234.174172 0.087772l-0.321828 0.336457a103.380114 103.380114 0 0 1-1.404343 1.4336l-25.643886 25.687771-0.438857-0.424228-54.535314 52.999314-54.740115-53.218743-0.394971 0.380343-25.892571-25.819429a92.891429 92.891429 0 0 1-1.404343-1.4336l-0.394972-0.424228c-31.0272-30.281143-73.201371-47.250286-117.160228-47.104z m550.663314 286.500572l87.771429 87.771428-87.771429-87.771428z m0 0l87.771429 87.771428-87.771429-87.771428z m-582.582857-126.098286h-73.289143c0-79.623314 68.169143-115.082971 104.228571-122.719086l15.506286 70.114743 0.336457-0.073143a81.408 81.408 0 0 0-26.199771 12.361143c-14.043429 10.24-20.5824 23.04-20.5824 40.316343z" fill="#0095d7" p-id="7420"></path></svg>